<svg id="visual" viewBox="0 0 900 600" width="900" height="600" xmlns="http://www.w3.org/2000/svg" xmlns:xlink="http://www.w3.org/1999/xlink" version="1.1"><path d="M0 63L13.7 62.8C27.3 62.7 54.7 62.3 82 57.8C109.3 53.3 136.7 44.7 163.8 41.3C191 38 218 40 245.2 43C272.3 46 299.7 50 327 49.5C354.3 49 381.7 44 409 42.8C436.3 41.7 463.7 44.3 491 51.5C518.3 58.7 545.7 70.3 573 70C600.3 69.7 627.7 57.3 654.8 54.5C682 51.7 709 58.3 736.2 61.5C763.3 64.7 790.7 64.3 818 65.3C845.3 66.3 872.7 68.7 886.3 69.8L900 71L900 0L886.3 0C872.7 0 845.3 0 818 0C790.7 0 763.3 0 736.2 0C709 0 682 0 654.8 0C627.7 0 600.3 0 573 0C545.7 0 518.3 0 491 0C463.7 0 436.3 0 409 0C381.7 0 354.3 0 327 0C299.7 0 272.3 0 245.2 0C218 0 191 0 163.8 0C136.7 0 109.3 0 82 0C54.7 0 27.3 0 13.7 0L0 0Z" fill="#fa7268"></path><path d="M0 51L13.7 46.7C27.3 42.3 54.7 33.7 82 33.8C109.3 34 136.7 43 163.8 45.8C191 48.7 218 45.3 245.2 44.2C272.3 43 299.7 44 327 43.5C354.3 43 381.7 41 409 41C436.3 41 463.7 43 491 41C518.3 39 545.7 33 573 30.5C600.3 28 627.7 29 654.8 29.7C682 30.3 709 30.7 736.2 34C763.3 37.3 790.7 43.7 818 47.3C845.3 51 872.7 52 886.3 52.5L900 53L900 0L886.3 0C872.7 0 845.3 0 818 0C790.7 0 763.3 0 736.2 0C709 0 682 0 654.8 0C627.7 0 600.3 0 573 0C545.7 0 518.3 0 491 0C463.7 0 436.3 0 409 0C381.7 0 354.3 0 327 0C299.7 0 272.3 0 245.2 0C218 0 191 0 163.8 0C136.7 0 109.3 0 82 0C54.7 0 27.3 0 13.7 0L0 0Z" fill="#334155"></path></svg>