<svg id="visual" viewBox="0 0 900 600" width="900" height="600" xmlns="http://www.w3.org/2000/svg" xmlns:xlink="http://www.w3.org/1999/xlink" version="1.1"><path d="M0 72L12.5 69.8C25 67.7 50 63.3 75 64C100 64.7 125 70.3 150 65.5C175 60.7 200 45.3 225 36.5C250 27.7 275 25.3 300 35.8C325 46.3 350 69.7 375 82.5C400 95.3 425 97.7 450 97.3C475 97 500 94 525 89.8C550 85.7 575 80.3 600 79.3C625 78.3 650 81.7 675 86.8C700 92 725 99 750 102.5C775 106 800 106 825 102.7C850 99.3 875 92.7 887.5 89.3L900 86L900 0L887.5 0C875 0 850 0 825 0C800 0 775 0 750 0C725 0 700 0 675 0C650 0 625 0 600 0C575 0 550 0 525 0C500 0 475 0 450 0C425 0 400 0 375 0C350 0 325 0 300 0C275 0 250 0 225 0C200 0 175 0 150 0C125 0 100 0 75 0C50 0 25 0 12.5 0L0 0Z" fill="#3cab7c"></path><path d="M0 56L12.5 56.7C25 57.3 50 58.7 75 52C100 45.3 125 30.7 150 23.2C175 15.7 200 15.3 225 24C250 32.7 275 50.3 300 55.3C325 60.3 350 52.7 375 52.8C400 53 425 61 450 60C475 59 500 49 525 39C550 29 575 19 600 22.8C625 26.7 650 44.3 675 43.3C700 42.3 725 22.7 750 23.7C775 24.7 800 46.3 825 58.3C850 70.3 875 72.7 887.5 73.8L900 75L900 0L887.5 0C875 0 850 0 825 0C800 0 775 0 750 0C725 0 700 0 675 0C650 0 625 0 600 0C575 0 550 0 525 0C500 0 475 0 450 0C425 0 400 0 375 0C350 0 325 0 300 0C275 0 250 0 225 0C200 0 175 0 150 0C125 0 100 0 75 0C50 0 25 0 12.5 0L0 0Z" fill="#334155"></path></svg>