<svg id="visual" viewBox="0 0 960 540" width="960" height="540" xmlns="http://www.w3.org/2000/svg" xmlns:xlink="http://www.w3.org/1999/xlink" version="1.1"><path d="M0 28L14.5 26.8C29 25.7 58 23.3 87.2 23C116.3 22.7 145.7 24.3 174.8 26.2C204 28 233 30 262 29.2C291 28.3 320 24.7 349 22.5C378 20.3 407 19.7 436.2 20.2C465.3 20.7 494.7 22.3 523.8 23.2C553 24 582 24 611 23.3C640 22.7 669 21.3 698 23.3C727 25.3 756 30.7 785.2 30.8C814.3 31 843.7 26 872.8 24.3C902 22.7 931 24.3 945.5 25.2L960 26L960 0L945.5 0C931 0 902 0 872.8 0C843.7 0 814.3 0 785.2 0C756 0 727 0 698 0C669 0 640 0 611 0C582 0 553 0 523.8 0C494.7 0 465.3 0 436.2 0C407 0 378 0 349 0C320 0 291 0 262 0C233 0 204 0 174.8 0C145.7 0 116.3 0 87.2 0C58 0 29 0 14.5 0L0 0Z" fill="#cfcfcf"></path><path d="M0 20L14.5 18.7C29 17.3 58 14.7 87.2 13.7C116.3 12.7 145.7 13.3 174.8 14.8C204 16.3 233 18.7 262 19.3C291 20 320 19 349 18.3C378 17.7 407 17.3 436.2 16.2C465.3 15 494.7 13 523.8 14C553 15 582 19 611 21C640 23 669 23 698 21C727 19 756 15 785.2 14.2C814.3 13.3 843.7 15.7 872.8 15.7C902 15.7 931 13.3 945.5 12.2L960 11L960 0L945.5 0C931 0 902 0 872.8 0C843.7 0 814.3 0 785.2 0C756 0 727 0 698 0C669 0 640 0 611 0C582 0 553 0 523.8 0C494.7 0 465.3 0 436.2 0C407 0 378 0 349 0C320 0 291 0 262 0C233 0 204 0 174.8 0C145.7 0 116.3 0 87.2 0C58 0 29 0 14.5 0L0 0Z" fill="#334155"></path></svg>