<svg id="visual" viewBox="0 0 960 540" width="960" height="540" xmlns="http://www.w3.org/2000/svg" xmlns:xlink="http://www.w3.org/1999/xlink" version="1.1"><path d="M0 94L14.5 96.7C29 99.3 58 104.7 87.2 97.7C116.3 90.7 145.7 71.3 174.8 66.8C204 62.3 233 72.7 262 77.5C291 82.3 320 81.7 349 76.7C378 71.7 407 62.3 436.2 65.8C465.3 69.3 494.7 85.7 523.8 86.7C553 87.7 582 73.3 611 72.7C640 72 669 85 698 85.7C727 86.3 756 74.7 785.2 67.2C814.3 59.7 843.7 56.3 872.8 54.5C902 52.7 931 52.3 945.5 52.2L960 52L960 0L945.5 0C931 0 902 0 872.8 0C843.7 0 814.3 0 785.2 0C756 0 727 0 698 0C669 0 640 0 611 0C582 0 553 0 523.8 0C494.7 0 465.3 0 436.2 0C407 0 378 0 349 0C320 0 291 0 262 0C233 0 204 0 174.8 0C145.7 0 116.3 0 87.2 0C58 0 29 0 14.5 0L0 0Z" fill="#cfcfcf"></path><path d="M0 46L14.5 45.3C29 44.7 58 43.3 87.2 46.3C116.3 49.3 145.7 56.7 174.8 57.2C204 57.7 233 51.3 262 47.3C291 43.3 320 41.7 349 42.3C378 43 407 46 436.2 47.5C465.3 49 494.7 49 523.8 52.2C553 55.3 582 61.7 611 62.5C640 63.3 669 58.7 698 56.2C727 53.7 756 53.3 785.2 54.7C814.3 56 843.7 59 872.8 58C902 57 931 52 945.5 49.5L960 47L960 0L945.5 0C931 0 902 0 872.8 0C843.7 0 814.3 0 785.2 0C756 0 727 0 698 0C669 0 640 0 611 0C582 0 553 0 523.8 0C494.7 0 465.3 0 436.2 0C407 0 378 0 349 0C320 0 291 0 262 0C233 0 204 0 174.8 0C145.7 0 116.3 0 87.2 0C58 0 29 0 14.5 0L0 0Z" fill="#334155"></path></svg>