<svg id="visual" viewBox="0 0 960 540" width="960" height="540" xmlns="http://www.w3.org/2000/svg" xmlns:xlink="http://www.w3.org/1999/xlink" version="1.1"><path d="M0 373L22.8 369.3C45.7 365.7 91.3 358.3 137 359.8C182.7 361.3 228.3 371.7 274 362.7C319.7 353.7 365.3 325.3 411.2 315C457 304.7 503 312.3 548.8 318.3C594.7 324.3 640.3 328.7 686 330.8C731.7 333 777.3 333 823 329.7C868.7 326.3 914.3 319.7 937.2 316.3L960 313L960 541L937.2 541C914.3 541 868.7 541 823 541C777.3 541 731.7 541 686 541C640.3 541 594.7 541 548.8 541C503 541 457 541 411.2 541C365.3 541 319.7 541 274 541C228.3 541 182.7 541 137 541C91.3 541 45.7 541 22.8 541L0 541Z" fill="#fa7268"></path><path d="M0 454L22.8 446.5C45.7 439 91.3 424 137 418.7C182.7 413.3 228.3 417.7 274 426C319.7 434.3 365.3 446.7 411.2 448.7C457 450.7 503 442.3 548.8 446.2C594.7 450 640.3 466 686 465.3C731.7 464.7 777.3 447.3 823 446.3C868.7 445.3 914.3 460.7 937.2 468.3L960 476L960 541L937.2 541C914.3 541 868.7 541 823 541C777.3 541 731.7 541 686 541C640.3 541 594.7 541 548.8 541C503 541 457 541 411.2 541C365.3 541 319.7 541 274 541C228.3 541 182.7 541 137 541C91.3 541 45.7 541 22.8 541L0 541Z" fill="#334155"></path></svg>