<svg id="visual" viewBox="0 0 960 200" width="960" height="200" xmlns="http://www.w3.org/2000/svg" xmlns:xlink="http://www.w3.org/1999/xlink" version="1.1"><path d="M0 112L22.8 111.3C45.7 110.7 91.3 109.3 137 108.7C182.7 108 228.3 108 274 107.7C319.7 107.3 365.3 106.7 411.2 99.7C457 92.7 503 79.3 548.8 72.5C594.7 65.7 640.3 65.3 686 63.8C731.7 62.3 777.3 59.7 823 65.3C868.7 71 914.3 85 937.2 92L960 99L960 201L937.2 201C914.3 201 868.7 201 823 201C777.3 201 731.7 201 686 201C640.3 201 594.7 201 548.8 201C503 201 457 201 411.2 201C365.3 201 319.7 201 274 201C228.3 201 182.7 201 137 201C91.3 201 45.7 201 22.8 201L0 201Z" fill="#cfcfcf"></path><path d="M0 110L22.8 116.7C45.7 123.3 91.3 136.7 137 137C182.7 137.3 228.3 124.7 274 124.8C319.7 125 365.3 138 411.2 139.8C457 141.7 503 132.3 548.8 128.2C594.7 124 640.3 125 686 130.2C731.7 135.3 777.3 144.7 823 149.7C868.7 154.7 914.3 155.3 937.2 155.7L960 156L960 201L937.2 201C914.3 201 868.7 201 823 201C777.3 201 731.7 201 686 201C640.3 201 594.7 201 548.8 201C503 201 457 201 411.2 201C365.3 201 319.7 201 274 201C228.3 201 182.7 201 137 201C91.3 201 45.7 201 22.8 201L0 201Z" fill="#334155"></path></svg>